<?xml version="1.0" encoding="UTF-8" standalone="no"?>
<!DOCTYPE svg PUBLIC "-//W3C//DTD SVG 1.1//EN"
 "http://www.w3.org/Graphics/SVG/1.1/DTD/svg11.dtd">
<!-- Generated by graphviz version 2.40.1 (20161225.0304)
 -->
<!-- Title: %3 Pages: 1 -->
<svg width="3312pt" height="548pt"
 viewBox="0.00 0.00 3312.05 548.00" xmlns="http://www.w3.org/2000/svg" xmlns:xlink="http://www.w3.org/1999/xlink">
<g id="graph0" class="graph" transform="scale(1 1) rotate(0) translate(4 544)">
<title>%3</title>
<polygon fill="#ffffff" stroke="transparent" points="-4,4 -4,-544 3308.0471,-544 3308.0471,4 -4,4"/>
<!-- [root] aws_autoscaling_group.example&#45;autoscaling -->
<g id="node1" class="node">
<title>[root] aws_autoscaling_group.example&#45;autoscaling</title>
<polygon fill="none" stroke="#000000" points="1162.2952,-396 895.2241,-396 895.2241,-360 1162.2952,-360 1162.2952,-396"/>
<text text-anchor="middle" x="1028.7597" y="-373.8" font-family="Times,serif" font-size="14.00" fill="#000000">aws_autoscaling_group.example&#45;autoscaling</text>
</g>
<!-- [root] aws_elb.stupid&#45;elb -->
<g id="node7" class="node">
<title>[root] aws_elb.stupid&#45;elb</title>
<polygon fill="none" stroke="#000000" points="1658.6294,-324 1536.89,-324 1536.89,-288 1658.6294,-288 1658.6294,-324"/>
<text text-anchor="middle" x="1597.7597" y="-301.8" font-family="Times,serif" font-size="14.00" fill="#000000">aws_elb.stupid&#45;elb</text>
</g>
<!-- [root] aws_autoscaling_group.example&#45;autoscaling&#45;&gt;[root] aws_elb.stupid&#45;elb -->
<g id="edge1" class="edge">
<title>[root] aws_autoscaling_group.example&#45;autoscaling&#45;&gt;[root] aws_elb.stupid&#45;elb</title>
<path fill="none" stroke="#000000" d="M1162.5244,-361.0737C1276.5171,-346.6493 1435.9047,-326.4808 1526.8,-314.9791"/>
<polygon fill="#000000" stroke="#000000" points="1527.246,-318.4506 1536.7275,-313.7229 1526.3672,-311.506 1527.246,-318.4506"/>
</g>
<!-- [root] aws_launch_configuration.django&#45;launch&#45;config -->
<g id="node18" class="node">
<title>[root] aws_launch_configuration.django&#45;launch&#45;config</title>
<polygon fill="none" stroke="#000000" points="952.2499,-324 665.2694,-324 665.2694,-288 952.2499,-288 952.2499,-324"/>
<text text-anchor="middle" x="808.7597" y="-301.8" font-family="Times,serif" font-size="14.00" fill="#000000">aws_launch_configuration.django&#45;launch&#45;config</text>
</g>
<!-- [root] aws_autoscaling_group.example&#45;autoscaling&#45;&gt;[root] aws_launch_configuration.django&#45;launch&#45;config -->
<g id="edge2" class="edge">
<title>[root] aws_autoscaling_group.example&#45;autoscaling&#45;&gt;[root] aws_launch_configuration.django&#45;launch&#45;config</title>
<path fill="none" stroke="#000000" d="M973.5283,-359.9243C943.1915,-349.9959 905.3931,-337.6255 873.6542,-327.2382"/>
<polygon fill="#000000" stroke="#000000" points="874.6063,-323.8672 864.0137,-324.0831 872.429,-330.52 874.6063,-323.8672"/>
</g>
<!-- [root] aws_codedeploy_app.dumb&#45;app -->
<g id="node2" class="node">
<title>[root] aws_codedeploy_app.dumb&#45;app</title>
<polygon fill="none" stroke="#000000" points="2067.043,-180 1870.4763,-180 1870.4763,-144 2067.043,-144 2067.043,-180"/>
<text text-anchor="middle" x="1968.7597" y="-157.8" font-family="Times,serif" font-size="14.00" fill="#000000">aws_codedeploy_app.dumb&#45;app</text>
</g>
<!-- [root] provider.aws -->
<g id="node27" class="node">
<title>[root] provider.aws</title>
<polygon fill="none" stroke="#000000" points="2135.7597,-108 2057.1513,-90 2135.7597,-72 2214.368,-90 2135.7597,-108"/>
<text text-anchor="middle" x="2135.7597" y="-85.8" font-family="Times,serif" font-size="14.00" fill="#000000">provider.aws</text>
</g>
<!-- [root] aws_codedeploy_app.dumb&#45;app&#45;&gt;[root] provider.aws -->
<g id="edge3" class="edge">
<title>[root] aws_codedeploy_app.dumb&#45;app&#45;&gt;[root] provider.aws</title>
<path fill="none" stroke="#000000" d="M2010.9008,-143.8314C2037.9756,-132.1584 2072.8119,-117.1391 2098.8053,-105.9324"/>
<polygon fill="#000000" stroke="#000000" points="2100.5027,-109.0121 2108.2999,-101.8389 2097.7313,-102.5841 2100.5027,-109.0121"/>
</g>
<!-- [root] aws_codedeploy_deployment_group.example -->
<g id="node3" class="node">
<title>[root] aws_codedeploy_deployment_group.example</title>
<polygon fill="none" stroke="#000000" points="1742.2431,-396 1469.2763,-396 1469.2763,-360 1742.2431,-360 1742.2431,-396"/>
<text text-anchor="middle" x="1605.7597" y="-373.8" font-family="Times,serif" font-size="14.00" fill="#000000">aws_codedeploy_deployment_group.example</text>
</g>
<!-- [root] aws_codedeploy_deployment_group.example&#45;&gt;[root] aws_codedeploy_app.dumb&#45;app -->
<g id="edge4" class="edge">
<title>[root] aws_codedeploy_deployment_group.example&#45;&gt;[root] aws_codedeploy_app.dumb&#45;app</title>
<path fill="none" stroke="#000000" d="M1704.3685,-359.9813C1774.2115,-342.7405 1866.0824,-310.4056 1927.7597,-252 1945.3831,-235.3114 1956.045,-209.6114 1962.0599,-189.9405"/>
<polygon fill="#000000" stroke="#000000" points="1965.4376,-190.8583 1964.794,-180.2831 1958.7023,-188.9515 1965.4376,-190.8583"/>
</g>
<!-- [root] aws_codedeploy_deployment_group.example&#45;&gt;[root] aws_elb.stupid&#45;elb -->
<g id="edge5" class="edge">
<title>[root] aws_codedeploy_deployment_group.example&#45;&gt;[root] aws_elb.stupid&#45;elb</title>
<path fill="none" stroke="#000000" d="M1603.7409,-359.8314C1602.8853,-352.131 1601.8679,-342.9743 1600.9171,-334.4166"/>
<polygon fill="#000000" stroke="#000000" points="1604.3886,-333.9656 1599.8056,-324.4133 1597.4314,-334.7386 1604.3886,-333.9656"/>
</g>
<!-- [root] aws_iam_role.codedeploy_service -->
<g id="node10" class="node">
<title>[root] aws_iam_role.codedeploy_service</title>
<polygon fill="none" stroke="#000000" points="2169.4639,-324 1960.0555,-324 1960.0555,-288 2169.4639,-288 2169.4639,-324"/>
<text text-anchor="middle" x="2064.7597" y="-301.8" font-family="Times,serif" font-size="14.00" fill="#000000">aws_iam_role.codedeploy_service</text>
</g>
<!-- [root] aws_codedeploy_deployment_group.example&#45;&gt;[root] aws_iam_role.codedeploy_service -->
<g id="edge6" class="edge">
<title>[root] aws_codedeploy_deployment_group.example&#45;&gt;[root] aws_iam_role.codedeploy_service</title>
<path fill="none" stroke="#000000" d="M1720.6964,-359.9707C1790.6778,-348.9932 1879.7735,-335.0174 1949.7654,-324.0383"/>
<polygon fill="#000000" stroke="#000000" points="1950.6121,-327.4484 1959.9489,-322.4409 1949.5273,-320.5329 1950.6121,-327.4484"/>
</g>
<!-- [root] aws_ecr_repository.ECR&#45;creation -->
<g id="node4" class="node">
<title>[root] aws_ecr_repository.ECR&#45;creation</title>
<polygon fill="none" stroke="#000000" points="3222.4512,-252 3017.0682,-252 3017.0682,-216 3222.4512,-216 3222.4512,-252"/>
<text text-anchor="middle" x="3119.7597" y="-229.8" font-family="Times,serif" font-size="14.00" fill="#000000">aws_ecr_repository.ECR&#45;creation</text>
</g>
<!-- [root] aws_ecr_repository.ECR&#45;creation&#45;&gt;[root] provider.aws -->
<g id="edge7" class="edge">
<title>[root] aws_ecr_repository.ECR&#45;creation&#45;&gt;[root] provider.aws</title>
<path fill="none" stroke="#000000" d="M3041.3141,-215.9155C2951.8386,-195.8481 2800.9423,-163.704 2669.7597,-144 2504.7243,-119.2112 2309.2429,-102.677 2206.6922,-94.9803"/>
<polygon fill="#000000" stroke="#000000" points="2206.6925,-91.4707 2196.4602,-94.2186 2206.1728,-98.4514 2206.6925,-91.4707"/>
</g>
<!-- [root] aws_ecs_cluster.django_cluster -->
<g id="node5" class="node">
<title>[root] aws_ecs_cluster.django_cluster</title>
<polygon fill="none" stroke="#000000" points="2289.8808,-396 2097.6385,-396 2097.6385,-360 2289.8808,-360 2289.8808,-396"/>
<text text-anchor="middle" x="2193.7597" y="-373.8" font-family="Times,serif" font-size="14.00" fill="#000000">aws_ecs_cluster.django_cluster</text>
</g>
<!-- [root] aws_ecs_cluster.django_cluster&#45;&gt;[root] provider.aws -->
<g id="edge8" class="edge">
<title>[root] aws_ecs_cluster.django_cluster&#45;&gt;[root] provider.aws</title>
<path fill="none" stroke="#000000" d="M2190.9744,-359.6819C2188.1413,-341.4631 2183.504,-312.7356 2178.7597,-288 2166.9795,-226.5813 2150.8227,-154.9759 2142.0497,-116.9543"/>
<polygon fill="#000000" stroke="#000000" points="2145.4469,-116.1097 2139.7809,-107.1572 2138.6273,-117.6891 2145.4469,-116.1097"/>
</g>
<!-- [root] aws_ecs_task_definition.django_task_definition -->
<g id="node6" class="node">
<title>[root] aws_ecs_task_definition.django_task_definition</title>
<polygon fill="none" stroke="#000000" points="3149.9532,-396 2865.5661,-396 2865.5661,-360 3149.9532,-360 3149.9532,-396"/>
<text text-anchor="middle" x="3007.7597" y="-373.8" font-family="Times,serif" font-size="14.00" fill="#000000">aws_ecs_task_definition.django_task_definition</text>
</g>
<!-- [root] data.template_file.django_task_definition_template -->
<g id="node26" class="node">
<title>[root] data.template_file.django_task_definition_template</title>
<polygon fill="none" stroke="#000000" points="3117.1913,-324 2814.328,-324 2814.328,-288 3117.1913,-288 3117.1913,-324"/>
<text text-anchor="middle" x="2965.7597" y="-301.8" font-family="Times,serif" font-size="14.00" fill="#000000">data.template_file.django_task_definition_template</text>
</g>
<!-- [root] aws_ecs_task_definition.django_task_definition&#45;&gt;[root] data.template_file.django_task_definition_template -->
<g id="edge9" class="edge">
<title>[root] aws_ecs_task_definition.django_task_definition&#45;&gt;[root] data.template_file.django_task_definition_template</title>
<path fill="none" stroke="#000000" d="M2997.1613,-359.8314C2992.4719,-351.7925 2986.8568,-342.1666 2981.6799,-333.2918"/>
<polygon fill="#000000" stroke="#000000" points="2984.5627,-331.2875 2976.5007,-324.4133 2978.5163,-334.8146 2984.5627,-331.2875"/>
</g>
<!-- [root] aws_security_group.elb&#45;securitygroup -->
<g id="node21" class="node">
<title>[root] aws_security_group.elb&#45;securitygroup</title>
<polygon fill="none" stroke="#000000" points="1919.2567,-252 1688.2626,-252 1688.2626,-216 1919.2567,-216 1919.2567,-252"/>
<text text-anchor="middle" x="1803.7597" y="-229.8" font-family="Times,serif" font-size="14.00" fill="#000000">aws_security_group.elb&#45;securitygroup</text>
</g>
<!-- [root] aws_elb.stupid&#45;elb&#45;&gt;[root] aws_security_group.elb&#45;securitygroup -->
<g id="edge10" class="edge">
<title>[root] aws_elb.stupid&#45;elb&#45;&gt;[root] aws_security_group.elb&#45;securitygroup</title>
<path fill="none" stroke="#000000" d="M1649.4763,-287.9243C1677.6377,-278.0815 1712.6659,-265.8386 1742.2249,-255.5073"/>
<polygon fill="#000000" stroke="#000000" points="1743.7366,-258.6866 1752.0218,-252.0831 1741.4269,-252.0786 1743.7366,-258.6866"/>
</g>
<!-- [root] aws_subnet.public_us1a -->
<g id="node24" class="node">
<title>[root] aws_subnet.public_us1a</title>
<polygon fill="none" stroke="#000000" points="1670.2399,-252 1517.2794,-252 1517.2794,-216 1670.2399,-216 1670.2399,-252"/>
<text text-anchor="middle" x="1593.7597" y="-229.8" font-family="Times,serif" font-size="14.00" fill="#000000">aws_subnet.public_us1a</text>
</g>
<!-- [root] aws_elb.stupid&#45;elb&#45;&gt;[root] aws_subnet.public_us1a -->
<g id="edge11" class="edge">
<title>[root] aws_elb.stupid&#45;elb&#45;&gt;[root] aws_subnet.public_us1a</title>
<path fill="none" stroke="#000000" d="M1596.7503,-287.8314C1596.3225,-280.131 1595.8138,-270.9743 1595.3384,-262.4166"/>
<polygon fill="#000000" stroke="#000000" points="1598.832,-262.2037 1594.7826,-252.4133 1591.8428,-262.592 1598.832,-262.2037"/>
</g>
<!-- [root] aws_iam_instance_profile.main -->
<g id="node8" class="node">
<title>[root] aws_iam_instance_profile.main</title>
<polygon fill="none" stroke="#000000" points="256.4396,-252 63.0797,-252 63.0797,-216 256.4396,-216 256.4396,-252"/>
<text text-anchor="middle" x="159.7597" y="-229.8" font-family="Times,serif" font-size="14.00" fill="#000000">aws_iam_instance_profile.main</text>
</g>
<!-- [root] aws_iam_role.instance_profile -->
<g id="node13" class="node">
<title>[root] aws_iam_role.instance_profile</title>
<polygon fill="none" stroke="#000000" points="191.7124,-180 3.807,-180 3.807,-144 191.7124,-144 191.7124,-180"/>
<text text-anchor="middle" x="97.7597" y="-157.8" font-family="Times,serif" font-size="14.00" fill="#000000">aws_iam_role.instance_profile</text>
</g>
<!-- [root] aws_iam_instance_profile.main&#45;&gt;[root] aws_iam_role.instance_profile -->
<g id="edge12" class="edge">
<title>[root] aws_iam_instance_profile.main&#45;&gt;[root] aws_iam_role.instance_profile</title>
<path fill="none" stroke="#000000" d="M144.1144,-215.8314C136.9006,-207.454 128.2026,-197.3531 120.2992,-188.1749"/>
<polygon fill="#000000" stroke="#000000" points="122.793,-185.7071 113.6155,-180.4133 117.4886,-190.2748 122.793,-185.7071"/>
</g>
<!-- [root] aws_iam_policy_attachment.ecs_service_attach1 -->
<g id="node9" class="node">
<title>[root] aws_iam_policy_attachment.ecs_service_attach1</title>
<polygon fill="none" stroke="#000000" points="2599.3712,-396 2308.1481,-396 2308.1481,-360 2599.3712,-360 2599.3712,-396"/>
<text text-anchor="middle" x="2453.7597" y="-373.8" font-family="Times,serif" font-size="14.00" fill="#000000">aws_iam_policy_attachment.ecs_service_attach1</text>
</g>
<!-- [root] aws_iam_role.ecs_service_role -->
<g id="node12" class="node">
<title>[root] aws_iam_role.ecs_service_role</title>
<polygon fill="none" stroke="#000000" points="2455.5744,-180 2263.945,-180 2263.945,-144 2455.5744,-144 2455.5744,-180"/>
<text text-anchor="middle" x="2359.7597" y="-157.8" font-family="Times,serif" font-size="14.00" fill="#000000">aws_iam_role.ecs_service_role</text>
</g>
<!-- [root] aws_iam_policy_attachment.ecs_service_attach1&#45;&gt;[root] aws_iam_role.ecs_service_role -->
<g id="edge13" class="edge">
<title>[root] aws_iam_policy_attachment.ecs_service_attach1&#45;&gt;[root] aws_iam_role.ecs_service_role</title>
<path fill="none" stroke="#000000" d="M2445.907,-359.9555C2429.457,-322.1556 2391.2891,-234.4506 2371.7518,-189.5564"/>
<polygon fill="#000000" stroke="#000000" points="2374.8558,-187.9178 2367.6561,-180.1451 2368.4373,-190.7111 2374.8558,-187.9178"/>
</g>
<!-- [root] aws_iam_role.codedeploy_service&#45;&gt;[root] provider.aws -->
<g id="edge14" class="edge">
<title>[root] aws_iam_role.codedeploy_service&#45;&gt;[root] provider.aws</title>
<path fill="none" stroke="#000000" d="M2070.691,-287.9555C2083.2135,-249.8587 2112.3987,-161.0699 2127.0468,-116.5067"/>
<polygon fill="#000000" stroke="#000000" points="2130.3927,-117.5357 2130.1905,-106.9428 2123.7428,-115.3498 2130.3927,-117.5357"/>
</g>
<!-- [root] aws_iam_role.ecs_consul_server_role -->
<g id="node11" class="node">
<title>[root] aws_iam_role.ecs_consul_server_role</title>
<polygon fill="none" stroke="#000000" points="2847.6849,-396 2617.8345,-396 2617.8345,-360 2847.6849,-360 2847.6849,-396"/>
<text text-anchor="middle" x="2732.7597" y="-373.8" font-family="Times,serif" font-size="14.00" fill="#000000">aws_iam_role.ecs_consul_server_role</text>
</g>
<!-- [root] aws_iam_role.ecs_consul_server_role&#45;&gt;[root] provider.aws -->
<g id="edge15" class="edge">
<title>[root] aws_iam_role.ecs_consul_server_role&#45;&gt;[root] provider.aws</title>
<path fill="none" stroke="#000000" d="M2718.4592,-359.9355C2681.7538,-314.9791 2579.0307,-197.8284 2464.7597,-144 2419.1424,-122.5116 2283.2222,-105.2596 2201.0493,-96.4311"/>
<polygon fill="#000000" stroke="#000000" points="2201.3718,-92.9458 2191.0582,-95.3707 2200.633,-99.9067 2201.3718,-92.9458"/>
</g>
<!-- [root] aws_iam_role.ecs_service_role&#45;&gt;[root] provider.aws -->
<g id="edge16" class="edge">
<title>[root] aws_iam_role.ecs_service_role&#45;&gt;[root] provider.aws</title>
<path fill="none" stroke="#000000" d="M2303.5241,-143.9243C2264.6697,-131.4354 2213.7939,-115.0824 2178.2985,-103.6732"/>
<polygon fill="#000000" stroke="#000000" points="2179.3089,-100.3217 2168.7176,-100.5936 2177.1668,-106.9859 2179.3089,-100.3217"/>
</g>
<!-- [root] aws_iam_role.instance_profile&#45;&gt;[root] provider.aws -->
<g id="edge17" class="edge">
<title>[root] aws_iam_role.instance_profile&#45;&gt;[root] provider.aws</title>
<path fill="none" stroke="#000000" d="M191.6322,-158.6836C537.7313,-146.4564 1738.7477,-104.0259 2057.5582,-92.7628"/>
<polygon fill="#000000" stroke="#000000" points="2057.7595,-96.2579 2067.6296,-92.4069 2057.5123,-89.2623 2057.7595,-96.2579"/>
</g>
<!-- [root] aws_iam_role_policy.ecs&#45;ec2&#45;role&#45;policy -->
<g id="node14" class="node">
<title>[root] aws_iam_role_policy.ecs&#45;ec2&#45;role&#45;policy</title>
<polygon fill="none" stroke="#000000" points="877.4238,-396 630.0955,-396 630.0955,-360 877.4238,-360 877.4238,-396"/>
<text text-anchor="middle" x="753.7597" y="-373.8" font-family="Times,serif" font-size="14.00" fill="#000000">aws_iam_role_policy.ecs&#45;ec2&#45;role&#45;policy</text>
</g>
<!-- [root] aws_iam_role_policy.ecs&#45;ec2&#45;role&#45;policy&#45;&gt;[root] aws_iam_role.instance_profile -->
<g id="edge18" class="edge">
<title>[root] aws_iam_role_policy.ecs&#45;ec2&#45;role&#45;policy&#45;&gt;[root] aws_iam_role.instance_profile</title>
<path fill="none" stroke="#000000" d="M630.2894,-359.9479C434.3269,-330.7117 72.1992,-274.055 53.7597,-252 37.6796,-232.7671 53.6563,-206.6601 70.6885,-187.5173"/>
<polygon fill="#000000" stroke="#000000" points="73.4167,-189.7248 77.7075,-180.0377 68.3123,-184.9347 73.4167,-189.7248"/>
</g>
<!-- [root] aws_iam_role_policy_attachment.codedeploy_service -->
<g id="node15" class="node">
<title>[root] aws_iam_role_policy_attachment.codedeploy_service</title>
<polygon fill="none" stroke="#000000" points="2079.3712,-396 1760.1481,-396 1760.1481,-360 2079.3712,-360 2079.3712,-396"/>
<text text-anchor="middle" x="1919.7597" y="-373.8" font-family="Times,serif" font-size="14.00" fill="#000000">aws_iam_role_policy_attachment.codedeploy_service</text>
</g>
<!-- [root] aws_iam_role_policy_attachment.codedeploy_service&#45;&gt;[root] aws_iam_role.codedeploy_service -->
<g id="edge19" class="edge">
<title>[root] aws_iam_role_policy_attachment.codedeploy_service&#45;&gt;[root] aws_iam_role.codedeploy_service</title>
<path fill="none" stroke="#000000" d="M1956.3493,-359.8314C1975.4836,-350.3302 1999.0826,-338.6121 2019.3719,-328.5374"/>
<polygon fill="#000000" stroke="#000000" points="2021.0332,-331.6203 2028.4332,-324.038 2017.9199,-325.3506 2021.0332,-331.6203"/>
</g>
<!-- [root] aws_iam_role_policy_attachment.instance_profile_codedeploy -->
<g id="node16" class="node">
<title>[root] aws_iam_role_policy_attachment.instance_profile_codedeploy</title>
<polygon fill="none" stroke="#000000" points="612.6505,-396 242.8688,-396 242.8688,-360 612.6505,-360 612.6505,-396"/>
<text text-anchor="middle" x="427.7597" y="-373.8" font-family="Times,serif" font-size="14.00" fill="#000000">aws_iam_role_policy_attachment.instance_profile_codedeploy</text>
</g>
<!-- [root] aws_iam_role_policy_attachment.instance_profile_codedeploy&#45;&gt;[root] aws_iam_role.instance_profile -->
<g id="edge20" class="edge">
<title>[root] aws_iam_role_policy_attachment.instance_profile_codedeploy&#45;&gt;[root] aws_iam_role.instance_profile</title>
<path fill="none" stroke="#000000" d="M242.9881,-364.5607C142.7631,-355.3397 36.1718,-341.5921 20.7597,-324 -10.8707,-287.8957 -1.3887,-258.5846 20.7597,-216 27.1236,-203.7642 37.6709,-193.7239 48.9482,-185.7624"/>
<polygon fill="#000000" stroke="#000000" points="51.1964,-188.4745 57.657,-180.0774 47.37,-182.6129 51.1964,-188.4745"/>
</g>
<!-- [root] aws_internet_gateway.main&#45;gw -->
<g id="node17" class="node">
<title>[root] aws_internet_gateway.main&#45;gw</title>
<polygon fill="none" stroke="#000000" points="1499.2895,-252 1306.2298,-252 1306.2298,-216 1499.2895,-216 1499.2895,-252"/>
<text text-anchor="middle" x="1402.7597" y="-229.8" font-family="Times,serif" font-size="14.00" fill="#000000">aws_internet_gateway.main&#45;gw</text>
</g>
<!-- [root] aws_vpc.main -->
<g id="node25" class="node">
<title>[root] aws_vpc.main</title>
<polygon fill="none" stroke="#000000" points="1547.2404,-180 1450.279,-180 1450.279,-144 1547.2404,-144 1547.2404,-180"/>
<text text-anchor="middle" x="1498.7597" y="-157.8" font-family="Times,serif" font-size="14.00" fill="#000000">aws_vpc.main</text>
</g>
<!-- [root] aws_internet_gateway.main&#45;gw&#45;&gt;[root] aws_vpc.main -->
<g id="edge21" class="edge">
<title>[root] aws_internet_gateway.main&#45;gw&#45;&gt;[root] aws_vpc.main</title>
<path fill="none" stroke="#000000" d="M1426.9845,-215.8314C1438.9224,-206.8779 1453.4852,-195.9558 1466.3657,-186.2955"/>
<polygon fill="#000000" stroke="#000000" points="1468.6426,-188.9629 1474.5426,-180.1628 1464.4425,-183.3629 1468.6426,-188.9629"/>
</g>
<!-- [root] aws_launch_configuration.django&#45;launch&#45;config&#45;&gt;[root] aws_iam_instance_profile.main -->
<g id="edge22" class="edge">
<title>[root] aws_launch_configuration.django&#45;launch&#45;config&#45;&gt;[root] aws_iam_instance_profile.main</title>
<path fill="none" stroke="#000000" d="M665.2511,-294.4508C558.1717,-285.1901 408.0745,-270.8554 266.6475,-252.068"/>
<polygon fill="#000000" stroke="#000000" points="266.8563,-248.5648 256.4804,-250.7076 265.9279,-255.503 266.8563,-248.5648"/>
</g>
<!-- [root] aws_security_group.ssh_ping -->
<g id="node22" class="node">
<title>[root] aws_security_group.ssh_ping</title>
<polygon fill="none" stroke="#000000" points="1094.7978,-252 912.7216,-252 912.7216,-216 1094.7978,-216 1094.7978,-252"/>
<text text-anchor="middle" x="1003.7597" y="-229.8" font-family="Times,serif" font-size="14.00" fill="#000000">aws_security_group.ssh_ping</text>
</g>
<!-- [root] aws_launch_configuration.django&#45;launch&#45;config&#45;&gt;[root] aws_security_group.ssh_ping -->
<g id="edge23" class="edge">
<title>[root] aws_launch_configuration.django&#45;launch&#45;config&#45;&gt;[root] aws_security_group.ssh_ping</title>
<path fill="none" stroke="#000000" d="M857.7147,-287.9243C884.2564,-278.1243 917.2419,-265.945 945.1455,-255.6422"/>
<polygon fill="#000000" stroke="#000000" points="946.6158,-258.8303 954.7845,-252.0831 944.1912,-252.2636 946.6158,-258.8303"/>
</g>
<!-- [root] aws_security_group.website -->
<g id="node23" class="node">
<title>[root] aws_security_group.website</title>
<polygon fill="none" stroke="#000000" points="1288.2772,-252 1113.2421,-252 1113.2421,-216 1288.2772,-216 1288.2772,-252"/>
<text text-anchor="middle" x="1200.7597" y="-229.8" font-family="Times,serif" font-size="14.00" fill="#000000">aws_security_group.website</text>
</g>
<!-- [root] aws_launch_configuration.django&#45;launch&#45;config&#45;&gt;[root] aws_security_group.website -->
<g id="edge24" class="edge">
<title>[root] aws_launch_configuration.django&#45;launch&#45;config&#45;&gt;[root] aws_security_group.website</title>
<path fill="none" stroke="#000000" d="M907.4403,-287.9984C962.182,-277.9974 1031.768,-265.2604 1102.9406,-252.1489"/>
<polygon fill="#000000" stroke="#000000" points="1103.7924,-255.5509 1112.9926,-250.2966 1102.5238,-248.6669 1103.7924,-255.5509"/>
</g>
<!-- [root] var.AWS_AMI -->
<g id="node29" class="node">
<title>[root] var.AWS_AMI</title>
<ellipse fill="none" stroke="#000000" cx="808.7597" cy="-234" rx="86.0726" ry="18"/>
<text text-anchor="middle" x="808.7597" y="-229.8" font-family="Times,serif" font-size="14.00" fill="#000000">[root] var.AWS_AMI</text>
</g>
<!-- [root] aws_launch_configuration.django&#45;launch&#45;config&#45;&gt;[root] var.AWS_AMI -->
<g id="edge25" class="edge">
<title>[root] aws_launch_configuration.django&#45;launch&#45;config&#45;&gt;[root] var.AWS_AMI</title>
<path fill="none" stroke="#000000" d="M808.7597,-287.8314C808.7597,-280.131 808.7597,-270.9743 808.7597,-262.4166"/>
<polygon fill="#000000" stroke="#000000" points="812.2598,-262.4132 808.7597,-252.4133 805.2598,-262.4133 812.2598,-262.4132"/>
</g>
<!-- [root] var.AWS_INATANCE -->
<g id="node30" class="node">
<title>[root] var.AWS_INATANCE</title>
<ellipse fill="none" stroke="#000000" cx="386.7597" cy="-234" rx="112.2017" ry="18"/>
<text text-anchor="middle" x="386.7597" y="-229.8" font-family="Times,serif" font-size="14.00" fill="#000000">[root] var.AWS_INATANCE</text>
</g>
<!-- [root] aws_launch_configuration.django&#45;launch&#45;config&#45;&gt;[root] var.AWS_INATANCE -->
<g id="edge26" class="edge">
<title>[root] aws_launch_configuration.django&#45;launch&#45;config&#45;&gt;[root] var.AWS_INATANCE</title>
<path fill="none" stroke="#000000" d="M703.088,-287.9707C632.3775,-275.9064 540.4414,-260.2206 473.9212,-248.8712"/>
<polygon fill="#000000" stroke="#000000" points="474.3303,-245.3905 463.8841,-247.1587 473.153,-252.2908 474.3303,-245.3905"/>
</g>
<!-- [root] var.KEY_NAME -->
<g id="node31" class="node">
<title>[root] var.KEY_NAME</title>
<ellipse fill="none" stroke="#000000" cx="610.7597" cy="-234" rx="94.2137" ry="18"/>
<text text-anchor="middle" x="610.7597" y="-229.8" font-family="Times,serif" font-size="14.00" fill="#000000">[root] var.KEY_NAME</text>
</g>
<!-- [root] aws_launch_configuration.django&#45;launch&#45;config&#45;&gt;[root] var.KEY_NAME -->
<g id="edge27" class="edge">
<title>[root] aws_launch_configuration.django&#45;launch&#45;config&#45;&gt;[root] var.KEY_NAME</title>
<path fill="none" stroke="#000000" d="M759.0515,-287.9243C730.2341,-277.4452 693.9357,-264.2458 664.4644,-253.529"/>
<polygon fill="#000000" stroke="#000000" points="665.3463,-250.1255 654.7522,-249.9973 662.954,-256.7041 665.3463,-250.1255"/>
</g>
<!-- [root] aws_route_table.main&#45;public -->
<g id="node19" class="node">
<title>[root] aws_route_table.main&#45;public</title>
<polygon fill="none" stroke="#000000" points="1424.1532,-324 1245.3661,-324 1245.3661,-288 1424.1532,-288 1424.1532,-324"/>
<text text-anchor="middle" x="1334.7597" y="-301.8" font-family="Times,serif" font-size="14.00" fill="#000000">aws_route_table.main&#45;public</text>
</g>
<!-- [root] aws_route_table.main&#45;public&#45;&gt;[root] aws_internet_gateway.main&#45;gw -->
<g id="edge28" class="edge">
<title>[root] aws_route_table.main&#45;public&#45;&gt;[root] aws_internet_gateway.main&#45;gw</title>
<path fill="none" stroke="#000000" d="M1351.9189,-287.8314C1359.9108,-279.3694 1369.5635,-269.1489 1378.3013,-259.8971"/>
<polygon fill="#000000" stroke="#000000" points="1381.0476,-262.0866 1385.3694,-252.4133 1375.9585,-257.2802 1381.0476,-262.0866"/>
</g>
<!-- [root] aws_route_table_association.main&#45;public&#45;1&#45;a -->
<g id="node20" class="node">
<title>[root] aws_route_table_association.main&#45;public&#45;1&#45;a</title>
<polygon fill="none" stroke="#000000" points="1450.8986,-396 1180.6208,-396 1180.6208,-360 1450.8986,-360 1450.8986,-396"/>
<text text-anchor="middle" x="1315.7597" y="-373.8" font-family="Times,serif" font-size="14.00" fill="#000000">aws_route_table_association.main&#45;public&#45;1&#45;a</text>
</g>
<!-- [root] aws_route_table_association.main&#45;public&#45;1&#45;a&#45;&gt;[root] aws_route_table.main&#45;public -->
<g id="edge29" class="edge">
<title>[root] aws_route_table_association.main&#45;public&#45;1&#45;a&#45;&gt;[root] aws_route_table.main&#45;public</title>
<path fill="none" stroke="#000000" d="M1320.5542,-359.8314C1322.6085,-352.0463 1325.0557,-342.7729 1327.3352,-334.1347"/>
<polygon fill="#000000" stroke="#000000" points="1330.7331,-334.9753 1329.9006,-324.4133 1323.9648,-333.1892 1330.7331,-334.9753"/>
</g>
<!-- [root] aws_route_table_association.main&#45;public&#45;1&#45;a&#45;&gt;[root] aws_subnet.public_us1a -->
<g id="edge30" class="edge">
<title>[root] aws_route_table_association.main&#45;public&#45;1&#45;a&#45;&gt;[root] aws_subnet.public_us1a</title>
<path fill="none" stroke="#000000" d="M1357.0123,-359.8989C1379.5897,-349.7581 1407.9406,-336.6406 1432.7597,-324 1474.8825,-302.5463 1521.9611,-275.9082 1554.2734,-257.1986"/>
<polygon fill="#000000" stroke="#000000" points="1556.0894,-260.1914 1562.9792,-252.1426 1552.5739,-254.1382 1556.0894,-260.1914"/>
</g>
<!-- [root] aws_security_group.elb&#45;securitygroup&#45;&gt;[root] aws_vpc.main -->
<g id="edge31" class="edge">
<title>[root] aws_security_group.elb&#45;securitygroup&#45;&gt;[root] aws_vpc.main</title>
<path fill="none" stroke="#000000" d="M1727.189,-215.9243C1674.4719,-203.4796 1605.5024,-187.1983 1557.1955,-175.7947"/>
<polygon fill="#000000" stroke="#000000" points="1557.7508,-172.3297 1547.2142,-173.4384 1556.1425,-179.1424 1557.7508,-172.3297"/>
</g>
<!-- [root] aws_security_group.ssh_ping&#45;&gt;[root] aws_vpc.main -->
<g id="edge32" class="edge">
<title>[root] aws_security_group.ssh_ping&#45;&gt;[root] aws_vpc.main</title>
<path fill="none" stroke="#000000" d="M1095.0184,-217.4095C1097.9652,-216.9262 1100.8848,-216.455 1103.7597,-216 1222.998,-197.1267 1363.1164,-178.9041 1440.312,-169.2066"/>
<polygon fill="#000000" stroke="#000000" points="1440.8343,-172.6686 1450.3216,-167.9527 1439.9641,-165.7229 1440.8343,-172.6686"/>
</g>
<!-- [root] aws_security_group.website&#45;&gt;[root] aws_vpc.main -->
<g id="edge33" class="edge">
<title>[root] aws_security_group.website&#45;&gt;[root] aws_vpc.main</title>
<path fill="none" stroke="#000000" d="M1275.573,-215.9243C1326.5973,-203.5963 1393.2046,-187.5032 1440.3323,-176.1167"/>
<polygon fill="#000000" stroke="#000000" points="1441.1822,-179.5121 1450.0805,-173.7614 1439.5382,-172.7079 1441.1822,-179.5121"/>
</g>
<!-- [root] aws_subnet.public_us1a&#45;&gt;[root] aws_vpc.main -->
<g id="edge34" class="edge">
<title>[root] aws_subnet.public_us1a&#45;&gt;[root] aws_vpc.main</title>
<path fill="none" stroke="#000000" d="M1569.7872,-215.8314C1557.9736,-206.8779 1543.5625,-195.9558 1530.8162,-186.2955"/>
<polygon fill="#000000" stroke="#000000" points="1532.8083,-183.4137 1522.7245,-180.1628 1528.5801,-188.9925 1532.8083,-183.4137"/>
</g>
<!-- [root] aws_vpc.main&#45;&gt;[root] provider.aws -->
<g id="edge35" class="edge">
<title>[root] aws_vpc.main&#45;&gt;[root] provider.aws</title>
<path fill="none" stroke="#000000" d="M1547.161,-156.5292C1661.0824,-143.6527 1946.0796,-111.4395 2073.0368,-97.0896"/>
<polygon fill="#000000" stroke="#000000" points="2073.4534,-100.5648 2082.997,-95.9638 2072.6672,-93.6091 2073.4534,-100.5648"/>
</g>
<!-- [root] data.template_file.django_task_definition_template&#45;&gt;[root] aws_ecr_repository.ECR&#45;creation -->
<g id="edge36" class="edge">
<title>[root] data.template_file.django_task_definition_template&#45;&gt;[root] aws_ecr_repository.ECR&#45;creation</title>
<path fill="none" stroke="#000000" d="M3004.6204,-287.8314C3025.0339,-278.2874 3050.2319,-266.5065 3071.8457,-256.4013"/>
<polygon fill="#000000" stroke="#000000" points="3073.6019,-259.4439 3081.1784,-252.038 3070.6372,-253.1027 3073.6019,-259.4439"/>
</g>
<!-- [root] provider.template -->
<g id="node28" class="node">
<title>[root] provider.template</title>
<polygon fill="none" stroke="#000000" points="2896.7597,-252 2794.434,-234 2896.7597,-216 2999.0853,-234 2896.7597,-252"/>
<text text-anchor="middle" x="2896.7597" y="-229.8" font-family="Times,serif" font-size="14.00" fill="#000000">provider.template</text>
</g>
<!-- [root] data.template_file.django_task_definition_template&#45;&gt;[root] provider.template -->
<g id="edge37" class="edge">
<title>[root] data.template_file.django_task_definition_template&#45;&gt;[root] provider.template</title>
<path fill="none" stroke="#000000" d="M2948.348,-287.8314C2939.3129,-278.4034 2928.1859,-266.7926 2918.5815,-256.7706"/>
<polygon fill="#000000" stroke="#000000" points="2921.0397,-254.2772 2911.5937,-249.479 2915.9858,-259.1206 2921.0397,-254.2772"/>
</g>
<!-- [root] var.AWS_REGION -->
<g id="node35" class="node">
<title>[root] var.AWS_REGION</title>
<ellipse fill="none" stroke="#000000" cx="2135.7597" cy="-18" rx="102.4934" ry="18"/>
<text text-anchor="middle" x="2135.7597" y="-13.8" font-family="Times,serif" font-size="14.00" fill="#000000">[root] var.AWS_REGION</text>
</g>
<!-- [root] provider.aws&#45;&gt;[root] var.AWS_REGION -->
<g id="edge60" class="edge">
<title>[root] provider.aws&#45;&gt;[root] var.AWS_REGION</title>
<path fill="none" stroke="#000000" d="M2135.7597,-71.8314C2135.7597,-64.131 2135.7597,-54.9743 2135.7597,-46.4166"/>
<polygon fill="#000000" stroke="#000000" points="2139.2598,-46.4132 2135.7597,-36.4133 2132.2598,-46.4133 2139.2598,-46.4132"/>
</g>
<!-- [root] meta.count&#45;boundary (count boundary fixup) -->
<g id="node32" class="node">
<title>[root] meta.count&#45;boundary (count boundary fixup)</title>
<ellipse fill="none" stroke="#000000" cx="2056.7597" cy="-450" rx="191.6931" ry="18"/>
<text text-anchor="middle" x="2056.7597" y="-445.8" font-family="Times,serif" font-size="14.00" fill="#000000">[root] meta.count&#45;boundary (count boundary fixup)</text>
</g>
<!-- [root] meta.count&#45;boundary (count boundary fixup)&#45;&gt;[root] aws_autoscaling_group.example&#45;autoscaling -->
<g id="edge38" class="edge">
<title>[root] meta.count&#45;boundary (count boundary fixup)&#45;&gt;[root] aws_autoscaling_group.example&#45;autoscaling</title>
<path fill="none" stroke="#000000" d="M1921.6649,-437.2161C1899.6485,-435.33 1877.0775,-433.515 1855.7597,-432 1555.3667,-410.6517 1476.6614,-422.7603 1172.3094,-396.0071"/>
<polygon fill="#000000" stroke="#000000" points="1172.5841,-392.5178 1162.3143,-395.1217 1171.9664,-399.4905 1172.5841,-392.5178"/>
</g>
<!-- [root] meta.count&#45;boundary (count boundary fixup)&#45;&gt;[root] aws_codedeploy_deployment_group.example -->
<g id="edge39" class="edge">
<title>[root] meta.count&#45;boundary (count boundary fixup)&#45;&gt;[root] aws_codedeploy_deployment_group.example</title>
<path fill="none" stroke="#000000" d="M1959.4546,-434.4657C1891.9374,-423.6869 1801.4606,-409.2427 1728.9183,-397.6617"/>
<polygon fill="#000000" stroke="#000000" points="1729.2323,-394.1676 1718.8055,-396.0472 1728.1287,-401.08 1729.2323,-394.1676"/>
</g>
<!-- [root] meta.count&#45;boundary (count boundary fixup)&#45;&gt;[root] aws_ecs_cluster.django_cluster -->
<g id="edge40" class="edge">
<title>[root] meta.count&#45;boundary (count boundary fixup)&#45;&gt;[root] aws_ecs_cluster.django_cluster</title>
<path fill="none" stroke="#000000" d="M2090.6248,-432.2022C2108.6836,-422.7115 2131.1005,-410.9304 2150.4176,-400.7783"/>
<polygon fill="#000000" stroke="#000000" points="2152.1087,-403.8435 2159.3325,-396.0931 2148.8522,-397.6471 2152.1087,-403.8435"/>
</g>
<!-- [root] meta.count&#45;boundary (count boundary fixup)&#45;&gt;[root] aws_ecs_task_definition.django_task_definition -->
<g id="edge41" class="edge">
<title>[root] meta.count&#45;boundary (count boundary fixup)&#45;&gt;[root] aws_ecs_task_definition.django_task_definition</title>
<path fill="none" stroke="#000000" d="M2224.3582,-441.192C2383.9881,-432.2199 2631.2616,-416.8088 2855.5308,-396.0895"/>
<polygon fill="#000000" stroke="#000000" points="2855.8838,-399.5719 2865.5172,-395.1619 2855.2364,-392.6019 2855.8838,-399.5719"/>
</g>
<!-- [root] meta.count&#45;boundary (count boundary fixup)&#45;&gt;[root] aws_iam_policy_attachment.ecs_service_attach1 -->
<g id="edge42" class="edge">
<title>[root] meta.count&#45;boundary (count boundary fixup)&#45;&gt;[root] aws_iam_policy_attachment.ecs_service_attach1</title>
<path fill="none" stroke="#000000" d="M2145.3601,-433.9314C2204.1455,-423.2701 2281.7087,-409.2032 2344.3423,-397.844"/>
<polygon fill="#000000" stroke="#000000" points="2345.0463,-401.2735 2354.2612,-396.0451 2343.7971,-394.3858 2345.0463,-401.2735"/>
</g>
<!-- [root] meta.count&#45;boundary (count boundary fixup)&#45;&gt;[root] aws_iam_role.ecs_consul_server_role -->
<g id="edge43" class="edge">
<title>[root] meta.count&#45;boundary (count boundary fixup)&#45;&gt;[root] aws_iam_role.ecs_consul_server_role</title>
<path fill="none" stroke="#000000" d="M2199.0602,-437.9165C2308.1465,-428.2198 2462.6725,-413.5504 2607.9386,-396.0696"/>
<polygon fill="#000000" stroke="#000000" points="2608.4293,-399.5359 2617.9366,-394.8602 2607.5886,-392.5865 2608.4293,-399.5359"/>
</g>
<!-- [root] meta.count&#45;boundary (count boundary fixup)&#45;&gt;[root] aws_iam_role_policy.ecs&#45;ec2&#45;role&#45;policy -->
<g id="edge44" class="edge">
<title>[root] meta.count&#45;boundary (count boundary fixup)&#45;&gt;[root] aws_iam_role_policy.ecs&#45;ec2&#45;role&#45;policy</title>
<path fill="none" stroke="#000000" d="M1923.3076,-437.0654C1900.7765,-435.1637 1877.6131,-433.3831 1855.7597,-432 1428.5768,-404.9638 1317.2945,-432.7485 887.5909,-396.1105"/>
<polygon fill="#000000" stroke="#000000" points="887.6439,-392.6022 877.3808,-395.233 887.0444,-399.5765 887.6439,-392.6022"/>
</g>
<!-- [root] meta.count&#45;boundary (count boundary fixup)&#45;&gt;[root] aws_iam_role_policy_attachment.codedeploy_service -->
<g id="edge45" class="edge">
<title>[root] meta.count&#45;boundary (count boundary fixup)&#45;&gt;[root] aws_iam_role_policy_attachment.codedeploy_service</title>
<path fill="none" stroke="#000000" d="M2022.8945,-432.2022C2004.8358,-422.7115 1982.4188,-410.9304 1963.1018,-400.7783"/>
<polygon fill="#000000" stroke="#000000" points="1964.6671,-397.6471 1954.1868,-396.0931 1961.4106,-403.8435 1964.6671,-397.6471"/>
</g>
<!-- [root] meta.count&#45;boundary (count boundary fixup)&#45;&gt;[root] aws_iam_role_policy_attachment.instance_profile_codedeploy -->
<g id="edge46" class="edge">
<title>[root] meta.count&#45;boundary (count boundary fixup)&#45;&gt;[root] aws_iam_role_policy_attachment.instance_profile_codedeploy</title>
<path fill="none" stroke="#000000" d="M1924.1276,-436.9843C1901.3407,-435.074 1877.8807,-433.3117 1855.7597,-432 1310.9462,-399.6941 1170.567,-429.1491 622.7787,-396.1017"/>
<polygon fill="#000000" stroke="#000000" points="622.8344,-392.5987 612.6405,-395.4858 622.4098,-399.5858 622.8344,-392.5987"/>
</g>
<!-- [root] meta.count&#45;boundary (count boundary fixup)&#45;&gt;[root] aws_route_table_association.main&#45;public&#45;1&#45;a -->
<g id="edge47" class="edge">
<title>[root] meta.count&#45;boundary (count boundary fixup)&#45;&gt;[root] aws_route_table_association.main&#45;public&#45;1&#45;a</title>
<path fill="none" stroke="#000000" d="M1917.9419,-437.5394C1760.8384,-423.4212 1520.062,-401.7293 1461.2947,-395.9781"/>
<polygon fill="#000000" stroke="#000000" points="1461.5007,-392.4812 1451.1992,-394.9569 1460.7961,-399.4456 1461.5007,-392.4812"/>
</g>
<!-- [root] output.ECRurl -->
<g id="node33" class="node">
<title>[root] output.ECRurl</title>
<ellipse fill="none" stroke="#000000" cx="3219.7597" cy="-306" rx="84.0754" ry="18"/>
<text text-anchor="middle" x="3219.7597" y="-301.8" font-family="Times,serif" font-size="14.00" fill="#000000">[root] output.ECRurl</text>
</g>
<!-- [root] meta.count&#45;boundary (count boundary fixup)&#45;&gt;[root] output.ECRurl -->
<g id="edge48" class="edge">
<title>[root] meta.count&#45;boundary (count boundary fixup)&#45;&gt;[root] output.ECRurl</title>
<path fill="none" stroke="#000000" d="M2241.6183,-445.2287C2545.128,-436.7895 3119.5713,-418.026 3158.7597,-396 3182.9083,-382.4271 3199.4166,-354.8384 3209.1083,-333.7643"/>
<polygon fill="#000000" stroke="#000000" points="3212.4349,-334.8904 3213.2033,-324.3234 3206.0129,-332.1048 3212.4349,-334.8904"/>
</g>
<!-- [root] output.ECRurl&#45;&gt;[root] aws_ecr_repository.ECR&#45;creation -->
<g id="edge49" class="edge">
<title>[root] output.ECRurl&#45;&gt;[root] aws_ecr_repository.ECR&#45;creation</title>
<path fill="none" stroke="#000000" d="M3195.5525,-288.5708C3182.8195,-279.4031 3167.0134,-268.0227 3153.1354,-258.0305"/>
<polygon fill="#000000" stroke="#000000" points="3154.9487,-255.0233 3144.7883,-252.0206 3150.8585,-260.7041 3154.9487,-255.0233"/>
</g>
<!-- [root] provider.aws (close) -->
<g id="node34" class="node">
<title>[root] provider.aws (close)</title>
<ellipse fill="none" stroke="#000000" cx="1742.7597" cy="-450" rx="104.3276" ry="18"/>
<text text-anchor="middle" x="1742.7597" y="-445.8" font-family="Times,serif" font-size="14.00" fill="#000000">[root] provider.aws (close)</text>
</g>
<!-- [root] provider.aws (close)&#45;&gt;[root] aws_autoscaling_group.example&#45;autoscaling -->
<g id="edge50" class="edge">
<title>[root] provider.aws (close)&#45;&gt;[root] aws_autoscaling_group.example&#45;autoscaling</title>
<path fill="none" stroke="#000000" d="M1649.2023,-442.0461C1538.1839,-432.4053 1347.2145,-415.1855 1172.4885,-396.0614"/>
<polygon fill="#000000" stroke="#000000" points="1172.6543,-392.5587 1162.3318,-394.9456 1171.8898,-399.5168 1172.6543,-392.5587"/>
</g>
<!-- [root] provider.aws (close)&#45;&gt;[root] aws_codedeploy_deployment_group.example -->
<g id="edge51" class="edge">
<title>[root] provider.aws (close)&#45;&gt;[root] aws_codedeploy_deployment_group.example</title>
<path fill="none" stroke="#000000" d="M1709.9447,-432.7542C1691.7669,-423.2009 1668.9374,-411.2029 1649.2854,-400.8748"/>
<polygon fill="#000000" stroke="#000000" points="1650.6989,-397.6638 1640.2186,-396.1098 1647.4423,-403.8602 1650.6989,-397.6638"/>
</g>
<!-- [root] provider.aws (close)&#45;&gt;[root] aws_ecs_cluster.django_cluster -->
<g id="edge52" class="edge">
<title>[root] provider.aws (close)&#45;&gt;[root] aws_ecs_cluster.django_cluster</title>
<path fill="none" stroke="#000000" d="M1819.3403,-437.7517C1831.5216,-435.8178 1843.9845,-433.8475 1855.7597,-432 1956.1437,-416.2499 1983.6905,-413.0411 2087.6733,-396.1643"/>
<polygon fill="#000000" stroke="#000000" points="2088.3317,-399.6033 2097.6399,-394.5429 2087.2076,-392.6941 2088.3317,-399.6033"/>
</g>
<!-- [root] provider.aws (close)&#45;&gt;[root] aws_ecs_task_definition.django_task_definition -->
<g id="edge53" class="edge">
<title>[root] provider.aws (close)&#45;&gt;[root] aws_ecs_task_definition.django_task_definition</title>
<path fill="none" stroke="#000000" d="M1815.5352,-437.0698C1828.8784,-435.0804 1842.7101,-433.2692 1855.7597,-432 2295.4919,-389.2309 2411.167,-429.7536 2855.3091,-396.0706"/>
<polygon fill="#000000" stroke="#000000" points="2855.8248,-399.5414 2865.5279,-395.287 2855.2896,-392.5619 2855.8248,-399.5414"/>
</g>
<!-- [root] provider.aws (close)&#45;&gt;[root] aws_iam_policy_attachment.ecs_service_attach1 -->
<g id="edge54" class="edge">
<title>[root] provider.aws (close)&#45;&gt;[root] aws_iam_policy_attachment.ecs_service_attach1</title>
<path fill="none" stroke="#000000" d="M1817.1057,-437.3246C1829.9714,-435.3696 1843.2351,-433.5042 1855.7597,-432 2048.6322,-408.8364 2100.4664,-415.1739 2297.631,-396.0878"/>
<polygon fill="#000000" stroke="#000000" points="2298.1302,-399.5558 2307.7422,-395.0992 2297.449,-392.589 2298.1302,-399.5558"/>
</g>
<!-- [root] provider.aws (close)&#45;&gt;[root] aws_iam_role.ecs_consul_server_role -->
<g id="edge55" class="edge">
<title>[root] provider.aws (close)&#45;&gt;[root] aws_iam_role.ecs_consul_server_role</title>
<path fill="none" stroke="#000000" d="M1815.8513,-437.1517C1829.0993,-435.1669 1842.8166,-433.3361 1855.7597,-432 2185.7827,-397.9307 2273.5448,-427.5134 2607.9912,-396.012"/>
<polygon fill="#000000" stroke="#000000" points="2608.3357,-399.4952 2617.9585,-395.0621 2607.6716,-392.5267 2608.3357,-399.4952"/>
</g>
<!-- [root] provider.aws (close)&#45;&gt;[root] aws_iam_role_policy.ecs&#45;ec2&#45;role&#45;policy -->
<g id="edge56" class="edge">
<title>[root] provider.aws (close)&#45;&gt;[root] aws_iam_role_policy.ecs&#45;ec2&#45;role&#45;policy</title>
<path fill="none" stroke="#000000" d="M1640.9854,-445.9807C1482.2309,-439.1789 1165.8198,-423.4894 887.6835,-396.1545"/>
<polygon fill="#000000" stroke="#000000" points="887.686,-392.6377 877.3899,-395.1357 886.9965,-399.6037 887.686,-392.6377"/>
</g>
<!-- [root] provider.aws (close)&#45;&gt;[root] aws_iam_role_policy_attachment.codedeploy_service -->
<g id="edge57" class="edge">
<title>[root] provider.aws (close)&#45;&gt;[root] aws_iam_role_policy_attachment.codedeploy_service</title>
<path fill="none" stroke="#000000" d="M1783.8119,-433.3008C1808.1877,-423.3852 1839.3817,-410.6961 1865.7391,-399.9745"/>
<polygon fill="#000000" stroke="#000000" points="1867.2652,-403.1322 1875.2094,-396.1222 1864.6276,-396.6482 1867.2652,-403.1322"/>
</g>
<!-- [root] provider.aws (close)&#45;&gt;[root] aws_iam_role_policy_attachment.instance_profile_codedeploy -->
<g id="edge58" class="edge">
<title>[root] provider.aws (close)&#45;&gt;[root] aws_iam_role_policy_attachment.instance_profile_codedeploy</title>
<path fill="none" stroke="#000000" d="M1640.182,-446.6052C1444.423,-439.7877 1003.7968,-422.8139 622.7667,-396.1263"/>
<polygon fill="#000000" stroke="#000000" points="622.8662,-392.6248 612.6452,-395.4141 622.3748,-399.6075 622.8662,-392.6248"/>
</g>
<!-- [root] provider.aws (close)&#45;&gt;[root] aws_route_table_association.main&#45;public&#45;1&#45;a -->
<g id="edge59" class="edge">
<title>[root] provider.aws (close)&#45;&gt;[root] aws_route_table_association.main&#45;public&#45;1&#45;a</title>
<path fill="none" stroke="#000000" d="M1667.8933,-437.3762C1602.8841,-426.4144 1507.6625,-410.3583 1432.6251,-397.7057"/>
<polygon fill="#000000" stroke="#000000" points="1433.0875,-394.2343 1422.6447,-396.0228 1431.9235,-401.1368 1433.0875,-394.2343"/>
</g>
<!-- [root] provider.template (close) -->
<g id="node36" class="node">
<title>[root] provider.template (close)</title>
<ellipse fill="none" stroke="#000000" cx="2800.7597" cy="-450" rx="120.715" ry="18"/>
<text text-anchor="middle" x="2800.7597" y="-445.8" font-family="Times,serif" font-size="14.00" fill="#000000">[root] provider.template (close)</text>
</g>
<!-- [root] provider.template (close)&#45;&gt;[root] data.template_file.django_task_definition_template -->
<g id="edge61" class="edge">
<title>[root] provider.template (close)&#45;&gt;[root] data.template_file.django_task_definition_template</title>
<path fill="none" stroke="#000000" d="M2906.183,-441.0437C3005.7671,-431.4893 3142.3094,-415.1176 3158.7597,-396 3187.874,-362.1648 3146.5978,-340.2259 3094.8508,-326.4882"/>
<polygon fill="#000000" stroke="#000000" points="3095.6342,-323.0762 3085.0813,-324.0175 3093.9179,-329.8625 3095.6342,-323.0762"/>
</g>
<!-- [root] root -->
<g id="node37" class="node">
<title>[root] root</title>
<ellipse fill="none" stroke="#000000" cx="2056.7597" cy="-522" rx="46.8976" ry="18"/>
<text text-anchor="middle" x="2056.7597" y="-517.8" font-family="Times,serif" font-size="14.00" fill="#000000">[root] root</text>
</g>
<!-- [root] root&#45;&gt;[root] meta.count&#45;boundary (count boundary fixup) -->
<g id="edge62" class="edge">
<title>[root] root&#45;&gt;[root] meta.count&#45;boundary (count boundary fixup)</title>
<path fill="none" stroke="#000000" d="M2056.7597,-503.8314C2056.7597,-496.131 2056.7597,-486.9743 2056.7597,-478.4166"/>
<polygon fill="#000000" stroke="#000000" points="2060.2598,-478.4132 2056.7597,-468.4133 2053.2598,-478.4133 2060.2598,-478.4132"/>
</g>
<!-- [root] root&#45;&gt;[root] provider.aws (close) -->
<g id="edge63" class="edge">
<title>[root] root&#45;&gt;[root] provider.aws (close)</title>
<path fill="none" stroke="#000000" d="M2016.3525,-512.7347C1965.647,-501.1079 1877.7708,-480.958 1815.2985,-466.6331"/>
<polygon fill="#000000" stroke="#000000" points="1816.0291,-463.2099 1805.4998,-464.3863 1814.4645,-470.0328 1816.0291,-463.2099"/>
</g>
<!-- [root] root&#45;&gt;[root] provider.template (close) -->
<g id="edge64" class="edge">
<title>[root] root&#45;&gt;[root] provider.template (close)</title>
<path fill="none" stroke="#000000" d="M2102.1802,-517.6045C2217.2147,-506.4721 2522.6882,-476.9101 2689.023,-460.8132"/>
<polygon fill="#000000" stroke="#000000" points="2689.6684,-464.2672 2699.2848,-459.8202 2688.9941,-457.2998 2689.6684,-464.2672"/>
</g>
</g>
</svg>
